<svg width="40" height="41" viewBox="0 0 40 41" fill="none" xmlns="http://www.w3.org/2000/svg">
<path d="M3.83012 11.5C5.6596 8.33126 7.95462 5.52618 11.2362 3.90787C14.5179 2.28955 18.2057 1.6807 21.8333 2.15828C25.461 2.63587 28.8655 4.17846 31.6165 6.59098C34.3674 9.00349 36.3412 12.1776 37.2882 15.7119C38.2352 19.2461 38.1129 22.9819 36.9368 26.4466C35.7607 29.9114 33.5835 32.9496 30.6807 35.177C27.7778 37.4045 24.2797 38.7211 20.6285 38.9604C16.9774 39.1997 13.3373 38.351 10.1686 36.5215M3.83012 11.5L11.5263 10.1699M3.83012 11.5L2 4.66988" stroke="white" stroke-width="4" stroke-miterlimit="16" stroke-linecap="round"/>
<path d="M11.7555 16.7949C11.6032 16.5078 11.7057 16.2852 12.0631 16.127C12.403 15.9746 12.7575 15.7607 13.1266 15.4854C13.4957 15.21 13.7975 14.9258 14.0319 14.6328C14.2955 14.3047 14.5475 14.1406 14.7877 14.1406H16.1852C16.5368 14.1406 16.7125 14.3164 16.7125 14.668V26.2695C16.7125 26.6211 16.5368 26.7969 16.1852 26.7969H14.7789C14.4274 26.7969 14.2516 26.6211 14.2516 26.2695V17.9111C14.2516 17.6768 14.2633 17.4424 14.2868 17.208H14.2516C14.07 17.4365 13.8707 17.6328 13.6539 17.7969C13.4371 17.9609 13.2174 18.0898 12.9948 18.1836C12.7194 18.3008 12.5114 18.2246 12.3707 17.9551L11.7555 16.7949Z" fill="white"/>
<path d="M18.9186 20.5479C18.9186 18.1748 19.2877 16.4902 20.026 15.4941C20.7643 14.498 21.8952 14 23.4186 14C24.942 14 26.0729 14.498 26.8112 15.4941C27.5494 16.4902 27.9186 18.1748 27.9186 20.5479C27.9186 22.9209 27.5494 24.6055 26.8112 25.6016C26.0729 26.5977 24.942 27.0957 23.4186 27.0957C21.8952 27.0957 20.7643 26.5977 20.026 25.6016C19.2877 24.6055 18.9186 22.9209 18.9186 20.5479ZM21.5202 20.5479C21.5202 21.6318 21.608 22.6748 21.7838 23.6768C21.9655 24.6787 22.5104 25.1797 23.4186 25.1797C24.3268 25.1797 24.8688 24.6787 25.0446 23.6768C25.2262 22.6748 25.317 21.6318 25.317 20.5479C25.317 19.4639 25.2262 18.4209 25.0446 17.4189C24.8688 16.417 24.3268 15.916 23.4186 15.916C22.5104 15.916 21.9655 16.417 21.7838 17.4189C21.608 18.4209 21.5202 19.4639 21.5202 20.5479Z" fill="white"/>
</svg>
