<svg width="40" height="41" viewBox="0 0 40 41" fill="none" xmlns="http://www.w3.org/2000/svg">
<path d="M36.0885 11.5C34.259 8.33126 31.964 5.52618 28.6823 3.90787C25.4007 2.28955 21.7129 1.6807 18.0853 2.15828C14.4576 2.63587 11.0531 4.17846 8.3021 6.59098C5.55116 9.00349 3.57738 12.1776 2.63037 15.7119C1.68337 19.2461 1.80566 22.9819 2.98179 26.4466C4.15793 29.9114 6.33507 32.9496 9.23791 35.177C12.1408 37.4045 15.6389 38.7211 19.29 38.9604C22.9412 39.1997 26.5813 38.351 29.75 36.5215M36.0885 11.5L28.3923 10.1699M36.0885 11.5L37.9186 4.66988" stroke="white" stroke-width="4" stroke-miterlimit="16" stroke-linecap="round"/>
<path d="M12.0683 16.7949C11.9159 16.5078 12.0185 16.2852 12.3759 16.127C12.7158 15.9746 13.0702 15.7607 13.4394 15.4854C13.8085 15.21 14.1103 14.9258 14.3447 14.6328C14.6083 14.3047 14.8603 14.1406 15.1005 14.1406H16.498C16.8495 14.1406 17.0253 14.3164 17.0253 14.668V26.2695C17.0253 26.6211 16.8495 26.7969 16.498 26.7969H15.0917C14.7402 26.7969 14.5644 26.6211 14.5644 26.2695V17.9111C14.5644 17.6768 14.5761 17.4424 14.5995 17.208H14.5644C14.3827 17.4365 14.1835 17.6328 13.9667 17.7969C13.7499 17.9609 13.5302 18.0898 13.3075 18.1836C13.0322 18.3008 12.8242 18.2246 12.6835 17.9551L12.0683 16.7949Z" fill="white"/>
<path d="M19.2314 20.5479C19.2314 18.1748 19.6005 16.4902 20.3388 15.4941C21.0771 14.498 22.2079 14 23.7314 14C25.2548 14 26.3857 14.498 27.124 15.4941C27.8622 16.4902 28.2314 18.1748 28.2314 20.5479C28.2314 22.9209 27.8622 24.6055 27.124 25.6016C26.3857 26.5977 25.2548 27.0957 23.7314 27.0957C22.2079 27.0957 21.0771 26.5977 20.3388 25.6016C19.6005 24.6055 19.2314 22.9209 19.2314 20.5479ZM21.8329 20.5479C21.8329 21.6318 21.9208 22.6748 22.0966 23.6768C22.2783 24.6787 22.8232 25.1797 23.7314 25.1797C24.6396 25.1797 25.1816 24.6787 25.3574 23.6768C25.539 22.6748 25.6298 21.6318 25.6298 20.5479C25.6298 19.4639 25.539 18.4209 25.3574 17.4189C25.1816 16.417 24.6396 15.916 23.7314 15.916C22.8232 15.916 22.2783 16.417 22.0966 17.4189C21.9208 18.4209 21.8329 19.4639 21.8329 20.5479Z" fill="white"/>
</svg>
