<svg width="40" height="40" viewBox="0 0 40 40" fill="none" xmlns="http://www.w3.org/2000/svg">
<path d="M7 20C5.89543 20 5 20.8954 5 22C5 23.1046 5.89543 24 7 24V20ZM39.4142 23.4142C40.1953 22.6332 40.1953 21.3668 39.4142 20.5858L26.6863 7.85786C25.9052 7.07682 24.6389 7.07682 23.8579 7.85786C23.0768 8.63891 23.0768 9.90524 23.8579 10.6863L35.1716 22L23.8579 33.3137C23.0768 34.0948 23.0768 35.3611 23.8579 36.1421C24.6389 36.9232 25.9052 36.9232 26.6863 36.1421L39.4142 23.4142ZM7 24H38V20H7V24Z" fill="white"/>
</svg>
