<svg width="45" height="45" viewBox="0 0 45 45" fill="none" xmlns="http://www.w3.org/2000/svg">
<circle cx="18.9138" cy="10.7348" r="10.7348" fill="white"/>
<path d="M26.5401 22.2601C27.1826 21.8092 28.0191 21.6752 28.7081 22.0511C29.7808 22.6364 30.803 23.3196 31.7618 24.0941L25.631 32.6878L23.0704 29.098L19.0001 32.0023L14.9298 34.9056L18.5645 40.0003H2.00009C0.895533 40.0003 -0.00654282 39.1042 0.0332952 38.0003C0.202596 33.3115 1.09479 28.9017 4.45517 25.5413C5.84786 24.1487 7.42093 22.9778 9.11923 22.0511C9.80823 21.6752 10.6448 21.8092 11.2872 22.2601C13.446 23.7752 16.0765 24.6644 18.9142 24.6644C21.7516 24.6643 24.3815 23.7751 26.5401 22.2601ZM37.3311 33.5062C37.6036 34.9562 37.7385 36.4631 37.794 38.0003C37.8339 39.1042 36.9318 40.0003 35.8272 40.0003H32.6993L37.3311 33.5062ZM12.0255 30.8353L14.9298 34.9056L23.0704 29.098L20.1671 25.0277L12.0255 30.8353Z" fill="white"/>
<path d="M19 32.0017L25.0789 40.523C25.3842 40.9508 25.879 40.9508 26.1842 40.523L40 21.1564" stroke="white" stroke-width="7" stroke-linecap="square"/>
</svg>
