<svg width="45" height="40" viewBox="0 0 45 40" fill="none" xmlns="http://www.w3.org/2000/svg">
<path fill-rule="evenodd" clip-rule="evenodd" d="M31.806 16.0405C35.8248 15.8147 39.0174 12.3128 39.0174 8.02604C39.0174 3.59338 35.6039 0 31.393 0C27.1821 0 23.7685 3.59338 23.7685 8.02604C23.7685 8.08238 23.769 8.13859 23.7701 8.19465C27.8244 8.79573 30.985 12.0077 31.806 16.0405ZM29.7072 15.8552C27.0067 15.2137 24.8493 13.0635 24.0761 10.2903C26.7766 10.9319 28.934 13.082 29.7072 15.8552ZM30.0121 18.3351C29.9036 22.6681 26.5327 26.1455 22.3903 26.1455C20.9 26.1455 19.5096 25.6954 18.335 24.9173C18.7403 22.7464 19.5518 20.7513 21.1238 19.0965C22.0115 18.162 23.0022 17.361 24.068 16.7058C24.7647 16.2774 25.6409 16.4289 26.3198 16.8851C27.4169 17.6226 28.6685 18.1278 30.0121 18.3351ZM33.2776 29.9065H19.9594C18.8548 29.9065 17.9495 29.0102 18.0041 27.907C18.0123 27.7422 18.0218 27.5779 18.0326 27.4142C19.3363 28.1296 20.8184 28.5341 22.3904 28.5341C24.2577 28.5341 25.9983 27.9634 27.4635 26.9786C28.1423 26.5223 29.0186 26.3709 29.7153 26.7992C30.7811 27.4545 31.7718 28.2555 32.6595 29.1899C32.8802 29.4222 33.0859 29.6612 33.2776 29.9065ZM35.6968 29.9065C35.2613 29.1758 34.738 28.474 34.1096 27.8125C33.103 26.7529 31.977 25.8421 30.7628 25.0955C30.412 24.8798 30.0528 24.7348 29.6945 24.6477C31.0884 22.9516 31.9433 20.7729 32.0105 18.4197C33.6437 18.3087 35.1638 17.7605 36.4662 16.8851C37.145 16.4289 38.0212 16.2774 38.718 16.7058C39.7837 17.361 40.7745 18.162 41.6622 19.0965C43.9341 21.488 44.6176 24.5904 44.7818 27.907C44.8364 29.0102 43.9312 29.9065 42.8266 29.9065H35.6968Z" fill="white"/>
<path fill-rule="evenodd" clip-rule="evenodd" d="M21.0132 8.19426C21.0143 8.13833 21.0148 8.08225 21.0148 8.02604C21.0148 3.59338 17.6012 0 13.3904 0C9.17948 0 5.76588 3.59338 5.76588 8.02604C5.76588 12.3119 8.95714 15.8132 12.9748 16.0404C13.796 12.0068 16.9577 8.79433 21.0132 8.19426ZM26.7506 27.4128C26.7615 27.577 26.771 27.7417 26.7792 27.907C26.8338 29.0102 25.9285 29.9065 24.824 29.9065H11.5031C11.6948 29.6612 11.9005 29.4222 12.1212 29.1899C13.0089 28.2555 13.9997 27.4545 15.0654 26.7992C15.7622 26.3708 16.6384 26.5223 17.3172 26.9786C18.7824 27.9634 20.5231 28.5341 22.3904 28.5341C23.9633 28.5341 25.4464 28.1291 26.7506 27.4128ZM20.7074 10.2896C18.0054 10.9304 15.8466 13.0814 15.0733 15.8559C17.7753 15.2151 19.9341 13.0642 20.7074 10.2896ZM14.7686 18.3355C16.1132 18.1285 17.3657 17.623 18.4636 16.8851C19.1424 16.4289 20.0186 16.2774 20.7154 16.7058C21.7811 17.361 22.7719 18.162 23.6595 19.0965C25.2312 20.7509 26.0427 22.7454 26.448 24.9158C25.2729 25.6948 23.8816 26.1455 22.3904 26.1455C18.2481 26.1455 14.8773 22.6683 14.7686 18.3355ZM12.7702 18.4196C12.8374 20.7728 13.6923 22.9515 15.0862 24.6477C14.7279 24.7348 14.3687 24.8798 14.0179 25.0955C12.8037 25.842 11.6777 26.7529 10.6712 27.8125C10.0427 28.474 9.51945 29.1758 9.08394 29.9065H1.95676C0.852187 29.9065 -0.0530993 29.0102 0.00152519 27.907C0.165744 24.5904 0.849265 21.488 3.12118 19.0965C4.00887 18.162 4.99963 17.361 6.06535 16.7058C6.7621 16.2774 7.63834 16.4289 8.31717 16.8851C9.61887 17.76 11.138 18.3081 12.7702 18.4196Z" fill="white"/>
<path d="M30.0148 18.1195C30.0148 22.5521 26.6012 26.1455 22.3904 26.1455C18.1795 26.1455 14.7659 22.5521 14.7659 18.1195C14.7659 13.6868 18.1795 10.0934 22.3904 10.0934C26.6012 10.0934 30.0148 13.6868 30.0148 18.1195Z" fill="white"/>
<path d="M17.3172 26.9786C16.6384 26.5223 15.7622 26.3708 15.0654 26.7992C13.9997 27.4545 13.0089 28.2555 12.1212 29.1899C9.84927 31.5815 9.16574 34.6839 9.00153 38.0005C8.9469 39.1037 9.85219 40 10.9568 40H33.824C34.9285 40 35.8338 39.1037 35.7792 38.0005C35.615 34.6839 34.9315 31.5815 32.6595 29.1899C31.7718 28.2555 30.7811 27.4545 29.7153 26.7992C29.0186 26.3709 28.1424 26.5223 27.4635 26.9786C25.9983 27.9634 24.2577 28.5341 22.3904 28.5341C20.5231 28.5341 18.7824 27.9634 17.3172 26.9786Z" fill="white"/>
</svg>
