<svg width="60" height="60" viewBox="0 0 60 60" fill="none" xmlns="http://www.w3.org/2000/svg">
<rect width="60" height="60" fill="#BBBBBB"/>
<circle cx="29.9138" cy="20.7348" r="10.7348" fill="white"/>
<path fill-rule="evenodd" clip-rule="evenodd" d="M22.2873 32.2599C21.6449 31.809 20.8084 31.6751 20.1194 32.051C18.421 32.9777 16.8481 34.1488 15.4553 35.5415C12.0949 38.9019 11.2027 43.3115 11.0334 48.0003C10.9935 49.1042 11.8954 50 13 50H46.8276C47.9321 50 48.834 49.1042 48.7942 48.0003C48.6249 43.3115 47.7326 38.9019 44.3722 35.5415C42.9795 34.1488 41.4065 32.9777 39.7081 32.051C39.0191 31.6751 38.1827 31.809 37.5402 32.2599C35.3815 33.7751 32.7515 34.6644 29.9138 34.6644C27.0761 34.6644 24.4461 33.7751 22.2873 32.2599Z" fill="white"/>
</svg>
