<svg width="40" height="40" viewBox="0 0 40 40" fill="none" xmlns="http://www.w3.org/2000/svg">
<mask id="path-1-inside-1_674_1818" fill="white">
<path fill-rule="evenodd" clip-rule="evenodd" d="M20 40C31.0457 40 40 31.0457 40 20C40 8.9543 31.0457 0 20 0C8.9543 0 0 8.9543 0 20C0 31.0457 8.9543 40 20 40ZM28.2372 8.8904C28.3383 8.45229 27.8549 8.11377 27.4778 8.35861L15.2546 16.2947C15.1459 16.3652 15.0688 16.4753 15.0397 16.6016L11.7628 30.8019C11.6617 31.24 12.1451 31.5785 12.5223 31.3337L24.7454 23.3977C24.8542 23.3271 24.9312 23.217 24.9604 23.0907L28.2372 8.8904Z"/>
</mask>
<path fill-rule="evenodd" clip-rule="evenodd" d="M20 40C31.0457 40 40 31.0457 40 20C40 8.9543 31.0457 0 20 0C8.9543 0 0 8.9543 0 20C0 31.0457 8.9543 40 20 40ZM28.2372 8.8904C28.3383 8.45229 27.8549 8.11377 27.4778 8.35861L15.2546 16.2947C15.1459 16.3652 15.0688 16.4753 15.0397 16.6016L11.7628 30.8019C11.6617 31.24 12.1451 31.5785 12.5223 31.3337L24.7454 23.3977C24.8542 23.3271 24.9312 23.217 24.9604 23.0907L28.2372 8.8904Z" fill="white"/>
<path d="M27.4778 8.35861L29.1114 10.8748L29.1114 10.8748L27.4778 8.35861ZM28.2372 8.8904L25.314 8.21584L25.314 8.21585L28.2372 8.8904ZM15.2546 16.2947L16.8882 18.8108L16.8882 18.8108L15.2546 16.2947ZM15.0397 16.6016L17.9628 17.2761L17.9628 17.2761L15.0397 16.6016ZM11.7628 30.8019L8.83961 30.1274L8.83961 30.1274L11.7628 30.8019ZM12.5223 31.3337L10.8886 28.8175L10.8886 28.8175L12.5223 31.3337ZM24.7454 23.3977L23.1118 20.8815L23.1118 20.8815L24.7454 23.3977ZM24.9604 23.0907L27.8835 23.7653L27.8835 23.7653L24.9604 23.0907ZM37 20C37 29.3888 29.3888 37 20 37V43C32.7025 43 43 32.7025 43 20H37ZM20 3C29.3888 3 37 10.6112 37 20H43C43 7.29745 32.7025 -3 20 -3V3ZM3 20C3 10.6112 10.6112 3 20 3V-3C7.29745 -3 -3 7.29745 -3 20H3ZM20 37C10.6112 37 3 29.3888 3 20H-3C-3 32.7025 7.29745 43 20 43V37ZM29.1114 10.8748C27.2259 12.099 24.8086 10.4064 25.314 8.21584L31.1604 9.56496C31.8681 6.4982 28.4839 4.12852 25.8441 5.84243L29.1114 10.8748ZM16.8882 18.8108L29.1114 10.8748L25.8441 5.84243L13.6209 13.7785L16.8882 18.8108ZM17.9628 17.2761C17.8171 17.9077 17.4318 18.4579 16.8882 18.8108L13.6209 13.7785C12.8599 14.2726 12.3205 15.0429 12.1165 15.9271L17.9628 17.2761ZM14.686 31.4765L17.9628 17.2761L12.1165 15.927L8.83961 30.1274L14.686 31.4765ZM10.8886 28.8175C12.7742 27.5933 15.1915 29.2859 14.686 31.4765L8.83961 30.1274C8.13192 33.1941 11.5161 35.5638 14.1559 33.8499L10.8886 28.8175ZM23.1118 20.8815L10.8886 28.8175L14.1559 33.8499L26.3791 25.9138L23.1118 20.8815ZM22.0372 22.4162C22.1829 21.7846 22.5682 21.2344 23.1118 20.8815L26.3791 25.9138C27.1401 25.4197 27.6795 24.6494 27.8835 23.7653L22.0372 22.4162ZM25.314 8.21585L22.0372 22.4162L27.8835 23.7653L31.1604 9.56496L25.314 8.21585Z" fill="white" mask="url(#path-1-inside-1_674_1818)"/>
<circle cx="20" cy="20" r="2" fill="white"/>
</svg>
