<svg width="36" height="41" viewBox="0 0 36 41" fill="none" xmlns="http://www.w3.org/2000/svg">
<path d="M18 9C12.8769 9 10.5707 9 6.0026 9C3.79346 9 2 10.7909 2 13V35C2 37.2091 3.79086 39 6 39H23C25.2091 39 27 37.2091 27 35V19" stroke="white" stroke-width="4" stroke-linecap="round"/>
<path d="M30.6408 0.766044C30.9958 0.34297 31.6266 0.287786 32.0497 0.642788L34.3478 2.57115C34.7709 2.92615 34.8261 3.55691 34.4711 3.97998L32.7034 6.0866L28.8732 2.87267L30.6408 0.766044Z" fill="white"/>
<path d="M28.0697 3.83014L31.8999 7.04408L19.6869 21.5989C19.3319 22.022 18.7012 22.0772 18.2781 21.7222L15.98 19.7938C15.5569 19.4388 15.5017 18.8081 15.8567 18.385L28.0697 3.83014Z" fill="white"/>
<path d="M17.8828 23.0223L14.7683 20.4089C14.6153 20.2806 14.3811 20.3745 14.3591 20.5729L13.9563 24.2156C13.9367 24.3929 14.1038 24.5331 14.275 24.483L17.7923 23.4538C17.984 23.3977 18.0358 23.1507 17.8828 23.0223Z" fill="white"/>
</svg>
