<svg width="38" height="41" viewBox="0 0 38 41" fill="none" xmlns="http://www.w3.org/2000/svg">
<path fill-rule="evenodd" clip-rule="evenodd" d="M25.88 2.03307C28.62 0.487441 31.4142 0.425245 33.486 1.5274C35.5373 2.61872 37.0364 4.93566 37.0364 8.49024C37.0364 13.7333 35.4134 18.5777 32.2355 22.7757C32.4372 21.9819 32.5571 21.1479 32.56 20.2967C32.5656 18.6374 32.1253 16.9093 30.9784 15.3077C29.8347 13.7105 28.021 12.2846 25.3523 11.1666C20.3234 9.05991 15.384 9.29198 11.442 10.2034C15.1451 8.058 19.3766 5.68416 22.7481 3.79282C23.9141 3.13872 24.9772 2.54234 25.88 2.03307Z" fill="white"/>
<path fill-rule="evenodd" clip-rule="evenodd" d="M30.2144 27.9906C34.5229 24.6494 36.7515 20.2352 37.8978 16.355C37.9433 20.6343 37.9276 25.4861 37.915 29.3518V29.3521V29.353C37.9107 30.6895 37.9068 31.9082 37.9059 32.9444C37.9031 36.0903 36.5823 38.5534 34.6034 39.8146C32.6439 41.0634 29.8892 41.2283 26.7948 39.4792C22.2305 36.8992 18.8118 33.1025 16.721 28.2702C17.3127 28.8364 17.9797 29.3512 18.7194 29.7726C20.1612 30.594 21.8822 31.0611 23.8408 30.8507C25.7941 30.641 27.9279 29.7638 30.2144 27.9906Z" fill="white"/>
<path fill-rule="evenodd" clip-rule="evenodd" d="M4.95487 15.1453C9.46251 12.4676 14.4564 11.3887 19.6886 11.9769C18.9032 12.2088 18.1249 12.5317 17.3915 12.964C15.9621 13.8066 14.7013 15.0677 13.9101 16.8717C13.121 18.6708 12.8214 20.9583 13.2232 23.8238C13.9804 29.2232 16.7026 33.3513 19.4995 36.2749C15.7639 34.187 11.562 31.7615 8.21409 29.8289L8.2137 29.8286C7.05585 29.1603 6.00015 28.5508 5.10122 28.0348C2.37299 26.4685 0.892427 24.0979 0.781909 21.7539C0.672478 19.4329 1.89884 16.9608 4.95487 15.1453Z" fill="white"/>
</svg>
