<svg width="1692" height="1696" viewBox="0 0 1692 1696" fill="none" xmlns="http://www.w3.org/2000/svg">
<g clip-path="url(#clip0_781_1013)">
<mask id="mask0_781_1013" style="mask-type:luminance" maskUnits="userSpaceOnUse" x="-1" y="-1" width="1693" height="1697">
<path d="M845.549 1695.54C1312.54 1695.54 1691.11 1315.98 1691.11 847.769C1691.11 379.559 1312.54 -0.000976562 845.549 -0.000976562C378.56 -0.000976562 -0.00915527 379.559 -0.00915527 847.769C-0.00915527 1315.98 378.56 1695.54 845.549 1695.54Z" fill="white"/>
</mask>
<g mask="url(#mask0_781_1013)">
<path d="M519.915 1084.47L157.535 1335.92C335.914 1592.99 615.152 1724.65 926.973 1698.71L757.319 1492.14L890.398 1259.09C739.344 1271.66 600.635 1200.57 519.915 1084.47Z" fill="#FBB040" stroke="#FBB040" stroke-width="0.999999" stroke-miterlimit="2" stroke-linejoin="round"/>
<path d="M251.156 1085.36L157.535 1335.92L518.631 1085.37L251.156 1085.36Z" fill="#FBB040" stroke="#FBB040" stroke-width="0.999999" stroke-miterlimit="2" stroke-linejoin="round"/>
<path d="M920.848 214.516L753.077 9.67067L752.819 6.56653C752.127 6.64569 751.435 6.73725 750.744 6.82059L750.536 6.56653L750.556 6.84144C454.956 42.7289 215.365 215.933 87.002 488.174C-46.4396 771.191 -20.8396 1078.85 157.535 1335.92L251.381 1085.57L519.915 1084.47C480.181 1027.32 454.498 959.274 448.31 884.92C430.548 671.445 579.873 482.628 787.206 447.308L787.24 447.753L787.531 447.253C788.173 447.141 788.815 447.029 789.46 446.92L789.24 444.27L920.848 214.516Z" fill="#F04E30" stroke="#F04E30" stroke-width="0.999999" stroke-miterlimit="2" stroke-linejoin="round"/>
<path d="M890.398 1259.09L926.973 1698.71C1238.79 1672.76 1492.44 1496.77 1625.88 1213.75L1361.55 1257.18L1226.93 1025.65C1166.5 1153.49 1041.45 1246.52 890.398 1259.09Z" fill="#68AD45" stroke="#68AD45" stroke-width="0.999999" stroke-miterlimit="2" stroke-linejoin="round"/>
<path d="M756.794 1492.36L926.973 1698.71L890.532 1260.72L756.794 1492.36Z" fill="#68AD45" stroke="#68AD45" stroke-width="0.999999" stroke-miterlimit="2" stroke-linejoin="round"/>
<path d="M1555.8 365.97L1462.19 616.524H1194.71L1555.8 365.97Z" fill="#874286" stroke="#874286" stroke-width="0.999999" stroke-miterlimit="2" stroke-linejoin="round"/>
<path d="M785.906 3.21636L956.085 209.57L822.348 441.212L822.486 442.832C973.536 430.266 1112.24 501.353 1192.96 617.453L1555.34 366.008C1376.96 108.933 1097.73 -22.7253 785.906 3.21636Z" fill="#874286" stroke="#874286" stroke-width="0.999999" stroke-miterlimit="2" stroke-linejoin="round"/>
<path d="M1555.34 366.008L1460.86 617.453H1192.96C1232.7 674.603 1258.39 742.653 1264.57 817.007C1270.76 891.357 1256.67 962.72 1226.93 1025.65L1625.88 1213.75C1759.32 930.736 1733.72 623.078 1555.34 366.008Z" fill="#E43C7A" stroke="#E43C7A" stroke-width="0.999999" stroke-miterlimit="2" stroke-linejoin="round"/>
<path d="M1362.01 1257.18L1625.81 1212.97L1228.28 1025.54L1362.01 1257.18Z" fill="#E43C7A" stroke="#E43C7A" stroke-width="0.999999" stroke-miterlimit="2" stroke-linejoin="round"/>
<path d="M1355.37 994.803C1360.62 996.64 1366.05 998.04 1371.56 998.04C1376.63 998.04 1380.4 995.066 1380.4 990.078C1380.4 977.657 1354.76 981.241 1354.76 961.82C1354.76 951.936 1363.07 945.724 1373.92 945.724C1379.35 945.724 1384.59 946.949 1390.01 949.136L1387.31 957.711C1382.58 955.961 1378.38 954.824 1373.92 954.824C1368.24 954.824 1365.7 957.624 1365.7 961.645C1365.7 973.195 1391.33 969.432 1391.33 989.903C1391.33 1001.37 1381.97 1007.14 1371.56 1007.14C1365 1007.14 1359.22 1005.83 1353.36 1003.72L1355.37 994.803Z" fill="white"/>
<path d="M1399.99 960.595H1410.22V1006H1399.99V960.595ZM1398.94 947.824C1398.94 944.411 1401.82 941.961 1405.06 941.961C1408.3 941.961 1411.19 944.411 1411.19 947.824C1411.19 951.061 1408.39 953.774 1405.06 953.774C1401.74 953.774 1398.94 951.061 1398.94 947.824Z" fill="white"/>
<path d="M1421.12 942.574L1431.36 940.824V1006H1421.12V942.574Z" fill="white"/>
<path d="M1466.79 978.707V976.607C1466.79 971.882 1463.72 968.295 1459 968.295C1454.45 968.295 1451.21 971.62 1451.21 977.22V978.707H1466.79ZM1441.06 978.27C1441.06 966.02 1449.11 959.457 1459 959.457C1468.97 959.457 1477.02 966.457 1477.02 976.607V986.228H1451.21V987.891C1451.21 994.978 1454.62 998.303 1460.49 998.303C1464.77 998.303 1468.8 997.428 1472.82 996.203L1474.84 1004.6C1470.11 1006.35 1466.09 1007.14 1460.49 1007.14C1448.94 1007.14 1441.06 1000.49 1441.06 987.891V978.27Z" fill="white"/>
<path d="M1485.81 978.182C1485.81 965.932 1493.94 959.457 1503.91 959.457C1513.8 959.457 1521.85 965.932 1521.85 978.182V1006H1511.61V978.62C1511.61 971.795 1508.55 968.295 1503.91 968.295C1499.19 968.295 1495.96 971.795 1495.96 978.62V1006H1485.81V978.182Z" fill="white"/>
<path d="M1531.1 979.32C1531.1 965.407 1539.24 959.457 1550.6 959.457C1554.98 959.457 1559.26 960.245 1563.64 961.557L1561.54 970.045C1558.13 969.082 1554.63 968.295 1551.04 968.295C1544.83 968.295 1541.34 971.357 1541.34 979.495V987.016C1541.34 995.241 1544.83 998.303 1551.04 998.303C1554.63 998.303 1558.04 997.516 1561.54 996.553L1563.73 1005.04C1558.91 1006.44 1554.98 1007.14 1550.6 1007.14C1539.24 1007.14 1531.1 1001.19 1531.1 987.278V979.32Z" fill="white"/>
<path d="M1595.84 978.707V976.607C1595.84 971.882 1592.78 968.295 1588.05 968.295C1583.51 968.295 1580.27 971.62 1580.27 977.22V978.707H1595.84ZM1570.12 978.27C1570.12 966.02 1578.17 959.457 1588.05 959.457C1598.03 959.457 1606.08 966.457 1606.08 976.607V986.228H1580.27V987.891C1580.27 994.978 1583.69 998.303 1589.54 998.303C1593.83 998.303 1597.85 997.428 1601.88 996.203L1603.89 1004.6C1599.16 1006.35 1595.14 1007.14 1589.54 1007.14C1577.99 1007.14 1570.12 1000.49 1570.12 987.891V978.27Z" fill="white"/>
<path d="M1405.51 892.615C1406.06 890.874 1407.91 889.911 1409.65 890.457C1411.39 891.007 1412.36 892.861 1411.81 894.599C1410.91 897.445 1409.87 900.465 1408.72 903.578C1408.16 905.082 1408.26 906.695 1409 908.115C1409.74 909.528 1411 910.524 1412.54 910.924L1478.16 927.836C1480.85 928.532 1483.66 927.115 1484.71 924.545C1488.62 914.903 1497.79 892.316 1521.11 895.478C1522.74 895.699 1524.37 895.928 1525.98 896.153C1533.93 897.27 1542.15 898.424 1545.85 897.82C1553.68 896.536 1557.98 893.29 1559.38 887.607C1560.28 883.999 1559.17 881.365 1557.64 878.878C1555.91 875.795 1557.35 872.149 1559.67 870.54C1561.23 869.465 1562.96 868.766 1564.22 868.353C1564.26 867.636 1563.92 866.553 1562.21 865.324C1561.49 864.803 1561 864.007 1560.87 863.124C1560.74 862.24 1560.98 861.345 1561.52 860.636C1561.5 860.432 1564.54 857.378 1567.84 854.524C1565.11 852.582 1559.89 848.182 1560.56 843.316C1560.85 841.278 1562.25 838.524 1567.3 836.97C1572.82 835.27 1573.59 833.132 1573.6 831.074C1573.6 828.978 1572.36 827.678 1569.37 825.382C1564.66 821.757 1559.28 817.036 1555.07 809.545C1553.66 807.045 1553.49 803.991 1554.62 801.374C1555.29 799.824 1556.21 798.357 1557.1 796.945C1558.48 794.766 1559.9 792.516 1559.57 791.095C1559.39 790.324 1558.9 789.295 1558.34 788.103C1556.97 785.216 1555.1 781.261 1554.71 775.253C1554.57 773.061 1554.32 770.882 1553.97 768.786C1553.67 766.986 1554.89 765.286 1556.69 764.991C1558.49 764.695 1560.19 765.911 1560.49 767.711C1560.87 770.02 1561.14 772.416 1561.3 774.824C1561.61 779.574 1563.04 782.607 1564.31 785.278C1565 786.749 1565.66 788.136 1566 789.599C1566.96 793.707 1564.69 797.299 1562.69 800.47C1561.89 801.724 1561.14 802.911 1560.69 803.982C1560.37 804.72 1560.42 805.591 1560.82 806.311C1563.75 811.516 1567.39 815.524 1573.4 820.153C1576.11 822.241 1580.21 825.395 1580.2 831.091C1580.19 836.949 1576.5 841.049 1569.24 843.282C1567.83 843.716 1567.29 844.136 1567.12 844.299C1567.32 845.403 1569.87 847.991 1572.42 849.653L1573.33 850.541C1574.8 852.653 1575.52 856.966 1571.48 860.182C1570.38 861.057 1569.49 861.857 1568.78 862.532C1571.76 866.37 1570.99 870.636 1569.41 872.949C1568.19 874.607 1566.19 874.249 1563.54 875.899C1564.97 878.411 1567.34 882.628 1565.79 889.186C1563.74 897.524 1557.39 902.62 1546.91 904.336C1542.23 905.103 1534.27 903.986 1525.06 902.69C1523.46 902.465 1521.84 902.241 1520.22 902.02C1504.19 899.853 1496.62 912.757 1490.82 927.028C1488.93 931.69 1484.38 934.615 1479.53 934.615C1478.53 934.615 1477.52 934.49 1476.51 934.232L1410.89 917.315C1407.56 916.457 1404.74 914.22 1403.15 911.174C1401.55 908.12 1401.33 904.516 1402.53 901.282C1403.64 898.27 1404.65 895.353 1405.51 892.615Z" fill="white"/>
<path d="M1409.53 727.603C1427.78 715.937 1452.86 709.245 1478.35 709.245C1495.46 709.245 1511.57 712.941 1524.94 719.937C1539.29 727.445 1550 738.587 1555.93 752.153C1556.66 753.824 1555.89 755.77 1554.22 756.499C1552.55 757.228 1550.61 756.466 1549.88 754.795C1539.39 730.77 1511.98 715.845 1478.35 715.845C1454.09 715.845 1430.3 722.158 1413.09 733.166C1392.31 746.449 1381.34 766.253 1381.34 790.441C1381.34 820.42 1385.28 832.699 1411.37 856.308C1416.04 860.541 1417.43 868.045 1415.61 879.245C1415.35 880.866 1413.94 882.016 1412.36 882.016L1411.82 881.974C1410.02 881.678 1408.8 879.982 1409.09 878.182C1410.49 869.616 1409.74 863.745 1406.93 861.203C1379.39 836.274 1374.74 821.67 1374.74 790.441C1374.74 763.891 1386.77 742.162 1409.53 727.603Z" fill="white"/>
<path d="M1428.78 765.466C1439.14 754.683 1456.27 754.337 1467.06 764.691L1467.78 765.42L1471.81 769.583C1473.27 771.099 1475.69 771.141 1477.21 769.674L1477.3 769.583L1481.32 765.428C1491.67 754.666 1508.78 754.328 1519.54 764.67L1520.3 765.428C1531.16 776.662 1531.16 794.482 1520.3 805.716L1474.46 852.574L1429.46 806.395C1418.47 795.066 1418.17 777.149 1428.77 765.457L1428.78 765.466ZM1469.01 857.899C1471.97 860.962 1476.86 861.041 1479.93 858.07L1480.11 857.899L1525.75 811.041C1539.51 796.841 1539.51 774.287 1525.75 760.091C1512.47 746.303 1490.52 745.895 1476.74 759.183L1475.83 760.091L1474.54 761.416L1473.25 760.078C1459.94 746.295 1437.97 745.916 1424.19 759.228L1423.29 760.124C1409.9 774.812 1410.2 797.37 1423.99 811.691L1469.01 857.899Z" fill="white"/>
<path d="M1275.56 238.362C1277.12 227.512 1277.04 217.4 1274.61 207.354C1271.94 196.391 1266.81 187.004 1257.61 180.108C1239.51 166.545 1215.44 166.195 1196.6 177.979C1187.3 183.795 1180.3 191.774 1174.81 201.187C1172.25 205.57 1169.29 205.433 1166.44 201.3C1163.1 196.445 1159.87 191.383 1155.79 187.191C1141.51 172.52 1124.1 166.554 1103.92 170.883C1087.89 174.324 1075.85 183.3 1069.37 198.841C1066.19 206.454 1064.84 214.45 1064.69 222.62C1064.59 227.662 1065.09 232.712 1065.33 237.754L1065.98 237.916C1068.41 235.47 1070.81 232.991 1073.29 230.587C1079.72 224.345 1088.49 223.92 1094.78 229.808C1096.7 231.599 1097.94 234.124 1099.55 236.408C1102.48 233.479 1105.44 230.237 1109.89 229.062C1114.37 227.874 1118.57 228.524 1122.42 231.012C1128.42 234.874 1130.12 240.987 1127.81 249.866C1139.92 255.02 1142.24 261.345 1136.79 274.345C1148.64 278.154 1151.7 292.316 1142.14 301.145C1136.44 306.408 1131.12 312.091 1125.62 317.578C1122.75 320.449 1119.86 323.308 1117 326.149L1117.36 326.654C1133.67 340.87 1151.03 353.67 1169.45 365.02C1170.06 365.391 1171.33 365.324 1171.95 364.933C1177.39 361.499 1182.79 358.02 1188.11 354.403C1200.72 345.828 1212.69 336.424 1224.74 325.883C1223.97 325.395 1223.17 325.07 1222.6 324.508C1214.57 316.529 1206.56 308.537 1198.58 300.508C1192.9 294.791 1191.81 287.483 1195.65 281.104C1197.7 277.687 1200.79 275.554 1204.59 274.366C1197.99 264.57 1202.41 252.941 1213.54 249.891C1213.34 249.274 1213.11 248.67 1212.93 248.049C1211.52 243.045 1212.13 238.354 1215.36 234.195C1221.14 226.766 1231.3 226.387 1238.54 233.27C1239.69 234.354 1240.81 235.462 1242.02 236.637C1246.36 224.529 1260.91 222.087 1269.35 231.916C1271.17 234.033 1273.22 235.954 1275.56 238.362ZM1056.98 219.124C1057.57 215.27 1057.99 211.387 1058.79 207.579C1061.19 196.104 1066.05 185.825 1074.71 177.737C1084.17 168.895 1095.47 163.579 1108.38 162.366C1132.03 160.145 1151.08 169.083 1166.16 187.079C1167.71 188.937 1169 191.02 1170.62 193.291C1171.22 192.47 1171.74 191.804 1172.21 191.108C1182.65 175.82 1197.04 166.395 1215.14 162.887C1238.45 158.37 1264.04 168.975 1275.52 189.125C1280.33 197.554 1282.88 206.641 1283.85 216.237C1284.85 226.187 1283.99 236.02 1282.07 245.795C1281.72 247.574 1281.07 249.087 1279.21 249.666C1277.44 250.216 1276.06 249.366 1274.85 248.158C1270.72 244.024 1266.64 239.837 1262.44 235.774C1257.94 231.424 1251.1 233.033 1249.47 238.766C1248.57 241.958 1249.74 244.537 1252 246.779C1258.66 253.404 1265.31 260.041 1271.96 266.683C1272.53 267.254 1273.16 267.82 1273.56 268.504C1274.54 270.154 1274.41 271.812 1273.03 273.17C1271.65 274.529 1269.99 274.624 1268.36 273.612C1267.62 273.149 1267.01 272.458 1266.39 271.833C1255.51 260.958 1244.62 250.079 1233.75 239.187C1231.99 237.42 1230.11 235.941 1227.44 235.937C1224.34 235.937 1221.99 237.283 1220.59 240.016C1219.21 242.737 1219.44 245.462 1221.26 247.962C1221.82 248.733 1222.52 249.412 1223.2 250.091C1235.7 262.599 1248.2 275.099 1260.7 287.604C1261.17 288.074 1261.66 288.524 1262.1 289.029C1263.69 290.866 1263.74 292.874 1262.24 294.408C1260.81 295.891 1258.63 295.912 1256.85 294.428C1256.34 294.003 1255.9 293.499 1255.43 293.029C1244.54 282.149 1233.67 271.262 1222.78 260.391C1219.74 257.358 1216.82 256.624 1213.59 258.004C1209.22 259.866 1207.64 265.279 1210.37 269.154C1210.96 269.991 1211.71 270.737 1212.44 271.466C1223.89 282.929 1235.34 294.383 1246.8 305.837C1247.22 306.258 1247.65 306.662 1248.05 307.095C1249.94 309.137 1250.1 311.178 1248.54 312.82C1246.91 314.516 1244.7 314.42 1242.67 312.399C1233.33 303.112 1224.02 293.804 1214.73 284.474C1212.63 282.366 1210.31 281.037 1207.21 281.595C1201.68 282.595 1199.13 288.887 1202.45 293.437C1203.05 294.27 1203.8 295.008 1204.53 295.737C1213.51 304.745 1222.51 313.741 1231.51 322.741C1234.45 325.691 1234.33 327.558 1231.24 330.295C1213.41 346.058 1194.34 360.137 1174.09 372.645C1171.63 374.166 1169.7 374.216 1167.21 372.674C1146.9 360.12 1127.77 346.004 1109.9 330.183C1107 327.616 1106.86 325.649 1109.56 322.937C1118.81 313.67 1128.06 304.404 1137.34 295.158C1139.26 293.241 1140.57 291.087 1140.24 288.279C1139.9 285.333 1138.37 283.154 1135.58 282.037C1132.81 280.924 1130.21 281.362 1127.89 283.254C1127.26 283.766 1126.69 284.345 1126.11 284.92C1117.21 293.812 1108.32 302.703 1099.43 311.595C1098.91 312.12 1098.4 312.67 1097.82 313.12C1096.18 314.387 1094.17 314.279 1092.79 312.899C1091.39 311.508 1091.27 309.545 1092.54 307.866C1093.03 307.22 1093.64 306.666 1094.21 306.091C1105.88 294.424 1117.54 282.749 1129.23 271.112C1131.34 269.008 1132.65 266.691 1132.11 263.604C1131.16 258.17 1124.99 255.549 1120.46 258.691C1119.62 259.274 1118.88 260.029 1118.15 260.758C1107.26 271.624 1096.38 282.504 1085.49 293.374C1084.91 293.945 1084.35 294.574 1083.66 294.979C1082.01 295.958 1080.36 295.808 1079.01 294.424C1077.66 293.041 1077.5 291.399 1078.56 289.766C1079 289.095 1079.63 288.541 1080.2 287.966C1092.96 275.195 1105.75 262.454 1118.45 249.624C1119.69 248.366 1120.79 246.687 1121.27 245.008C1122.17 241.899 1120.69 238.804 1118.06 237.149C1115.34 235.445 1111.94 235.587 1109.34 237.583C1108.51 238.208 1107.77 238.941 1107.04 239.674C1096.47 250.233 1085.91 260.804 1075.34 271.37L1074.24 272.466C1072.11 274.541 1069.86 274.804 1068.21 273.183C1066.56 271.566 1066.78 269.212 1068.84 267.145C1075 260.962 1081.18 254.799 1087.36 248.629C1088.09 247.899 1088.84 247.179 1089.55 246.429C1092.76 243.079 1092.91 238.591 1089.92 235.508C1086.93 232.412 1082.21 232.479 1078.83 235.77C1075.07 239.437 1071.39 243.183 1067.67 246.895C1067.2 247.366 1066.73 247.837 1066.26 248.308C1065.09 249.466 1063.77 250.149 1062.06 249.633C1060.26 249.087 1059.51 247.674 1059.25 245.995C1058.58 241.616 1058.01 237.22 1057.38 232.837C1057.29 232.254 1057.11 231.683 1056.98 231.108V219.124Z" fill="white"/>
<path d="M1089.81 403.337C1094.98 403.337 1098.04 399.574 1098.04 394.062C1098.04 388.549 1094.98 384.704 1089.81 384.704H1080.28V403.337H1089.81ZM1069.78 375.604H1090.16C1101.54 375.604 1108.8 384.179 1108.8 394.062C1108.8 403.862 1101.54 412.258 1090.16 412.258H1080.28V434.741H1069.78V375.604Z" fill="white"/>
<path d="M1131.69 427.045C1136.06 427.045 1138.69 423.895 1138.69 420.745V414.27H1131.43C1126.53 414.27 1124.78 417.245 1124.78 420.57C1124.78 423.808 1127.05 427.045 1131.69 427.045ZM1131.51 406.749H1138.69V405.087C1138.69 399.924 1136.14 397.037 1131.51 397.037C1127.49 397.037 1123.29 397.999 1119.26 399.224L1117.08 390.912C1121.71 389.424 1126.61 388.199 1131.51 388.199C1142.01 388.199 1149.01 394.762 1149.01 405.087V420.745C1149.01 429.408 1141.04 435.878 1131.69 435.878C1121.89 435.878 1114.36 429.32 1114.36 420.745C1114.36 411.47 1121.36 406.749 1131.51 406.749Z" fill="white"/>
<path d="M1158.32 389.337H1168.47V416.72C1168.47 423.545 1171.62 427.045 1176.34 427.045C1180.98 427.045 1184.13 423.545 1184.13 416.72V389.337H1194.36V417.158C1194.36 429.408 1186.14 435.878 1176.34 435.878C1166.37 435.878 1158.32 429.408 1158.32 417.158V389.337Z" fill="white"/>
<path d="M1203.84 424.945C1207.69 426.17 1211.63 427.045 1215.65 427.045C1219.59 427.045 1222.39 425.032 1222.39 422.32C1222.39 413.92 1202.96 417.07 1202.96 401.412C1202.96 393.799 1209.09 388.199 1218.97 388.199C1223.09 388.199 1226.94 388.899 1231.04 390.299L1228.77 398.874C1225.44 397.824 1222.47 397.037 1218.97 397.037C1214.95 397.037 1213.46 398.962 1213.46 401.412C1213.46 409.282 1232.79 405.962 1232.79 422.145C1232.79 429.058 1227.29 435.878 1215.65 435.878C1210.93 435.878 1206.46 435.003 1201.83 433.341L1203.84 424.945Z" fill="white"/>
<path d="M1266.04 407.449V405.349C1266.04 400.624 1262.98 397.037 1258.25 397.037C1253.7 397.037 1250.46 400.362 1250.46 405.962V407.449H1266.04ZM1240.31 407.012C1240.31 394.762 1248.36 388.199 1258.25 388.199C1268.23 388.199 1276.27 395.199 1276.27 405.349V414.97H1250.46V416.633C1250.46 423.72 1253.88 427.045 1259.74 427.045C1264.03 427.045 1268.05 426.17 1272.08 424.945L1274.09 433.341C1269.36 435.091 1265.34 435.878 1259.74 435.878C1248.19 435.878 1240.31 429.233 1240.31 416.633V407.012Z" fill="white"/>
<path d="M1097.96 1315.37C1107.7 1305.22 1123.82 1304.9 1133.96 1314.64L1134.65 1315.32L1138.44 1319.24C1139.82 1320.67 1142.09 1320.71 1143.52 1319.33L1143.61 1319.24L1147.39 1315.34C1157.12 1305.21 1173.21 1304.89 1183.34 1314.62L1184.06 1315.34C1194.27 1325.9 1194.27 1342.66 1184.06 1353.24L1140.94 1397.32L1098.59 1353.87C1088.26 1343.21 1087.97 1326.36 1097.95 1315.36L1097.96 1315.37ZM1135.8 1402.33C1138.59 1405.21 1143.19 1405.28 1146.08 1402.49L1146.24 1402.33L1189.19 1358.24C1202.13 1344.89 1202.13 1323.67 1189.19 1310.31C1176.69 1297.34 1156.04 1296.96 1143.07 1309.46L1142.22 1310.31L1141.01 1311.56L1139.8 1310.3C1127.27 1297.33 1106.6 1296.98 1093.64 1309.5L1092.79 1310.34C1080.19 1324.16 1080.48 1345.38 1093.45 1358.85L1135.8 1402.33Z" fill="white"/>
<path d="M1055.94 1366.12L1056.03 1366.02C1058.15 1364.34 1060.57 1363.09 1063.16 1362.32C1065.06 1361.74 1066.13 1359.73 1065.55 1357.83C1064.97 1355.95 1063 1354.88 1061.11 1355.43C1058.82 1356.12 1056.63 1357.09 1054.59 1358.33C1052.47 1354.94 1051.35 1351.04 1051.36 1347.05C1051.35 1341.08 1053.83 1335.38 1058.21 1331.33L1058.33 1331.19C1061.51 1328.23 1065.53 1326.32 1069.83 1325.71C1071.79 1325.42 1073.16 1323.6 1072.87 1321.64C1072.59 1319.67 1070.77 1318.31 1068.81 1318.59C1065.19 1319.13 1061.71 1320.37 1058.56 1322.22L1058.54 1321.89C1058.53 1309.85 1067.07 1299.5 1078.89 1297.22C1080.86 1299.31 1083.23 1300.97 1085.85 1302.13C1087.67 1302.93 1089.79 1302.11 1090.59 1300.3C1091.4 1298.48 1090.58 1296.36 1088.76 1295.56L1088.73 1295.54C1081.45 1292.37 1078.12 1283.9 1081.29 1276.62C1083.58 1271.38 1088.76 1267.99 1094.48 1267.99H1094.78C1094.59 1269.18 1094.49 1270.38 1094.48 1271.59C1094.48 1272.99 1094.6 1274.39 1094.84 1275.78C1095.13 1277.5 1096.61 1278.77 1098.36 1278.77L1098.96 1278.72C1100.92 1278.39 1102.24 1276.54 1101.91 1274.58C1101.42 1271.7 1101.66 1268.75 1102.58 1265.98C1105.72 1256.57 1115.89 1251.48 1125.31 1254.61C1132.62 1257.05 1137.57 1263.88 1137.6 1271.59V1289.55C1137.6 1291.54 1139.21 1293.14 1141.19 1293.14C1143.17 1293.14 1144.79 1291.54 1144.79 1289.55V1271.59C1144.8 1261.66 1152.85 1253.63 1162.77 1253.64C1172.69 1253.65 1180.73 1261.71 1180.72 1271.63C1180.71 1272.62 1180.63 1273.61 1180.47 1274.58C1180.14 1276.54 1181.46 1278.39 1183.41 1278.72L1184.01 1278.77C1185.77 1278.77 1187.26 1277.5 1187.56 1275.78C1187.79 1274.39 1187.91 1272.99 1187.9 1271.59C1187.89 1270.38 1187.79 1269.18 1187.6 1267.99H1187.9C1195.84 1268 1202.27 1274.44 1202.27 1282.37C1202.27 1284.36 1201.86 1286.33 1201.06 1288.15C1200.76 1288.84 1200.4 1289.5 1199.98 1290.12L1199.77 1290.46L1199.57 1290.77L1199.26 1291.17C1197.8 1293.07 1195.88 1294.57 1193.67 1295.52C1191.85 1296.31 1191.01 1298.43 1191.8 1300.25C1192.59 1302.08 1194.7 1302.92 1196.53 1302.13C1199.16 1300.98 1201.53 1299.32 1203.49 1297.23C1215.32 1299.5 1223.86 1309.85 1223.84 1321.89L1223.81 1322.22C1220.66 1320.35 1217.18 1319.11 1213.55 1318.58C1211.61 1318.29 1209.8 1319.64 1209.51 1321.58L1209.5 1321.65C1209.23 1323.62 1210.6 1325.43 1212.56 1325.71C1216.89 1326.32 1220.92 1328.25 1224.11 1331.24L1224.17 1331.33C1228.55 1335.38 1231.03 1341.08 1231.02 1347.05C1231.03 1351.04 1229.91 1354.95 1227.79 1358.33C1225.75 1357.09 1223.55 1356.12 1221.26 1355.43C1219.37 1354.85 1217.36 1355.92 1216.78 1357.82C1216.2 1359.71 1217.27 1361.72 1219.16 1362.3L1219.22 1362.32C1221.81 1363.09 1224.23 1364.34 1226.35 1366.02L1226.43 1366.12C1231.62 1370.17 1234.64 1376.39 1234.62 1382.98C1234.58 1390.93 1230.19 1398.22 1223.17 1401.97C1222.52 1398.45 1221.29 1395.07 1219.53 1391.97C1218.48 1390.28 1216.27 1389.75 1214.58 1390.8C1212.96 1391.8 1212.41 1393.88 1213.31 1395.56C1220.24 1407.57 1216.12 1422.93 1204.11 1429.86C1203.49 1430.22 1202.86 1430.55 1202.21 1430.85C1202.21 1430.47 1202.29 1430.07 1202.29 1429.69C1202.3 1428.34 1202.22 1427 1202.06 1425.67C1201.82 1423.69 1200.03 1422.29 1198.06 1422.53C1196.09 1422.77 1194.68 1424.56 1194.92 1426.53C1195.04 1427.58 1195.1 1428.64 1195.09 1429.69C1195.09 1443.59 1183.83 1454.85 1169.94 1454.85C1156.04 1454.85 1144.79 1443.59 1144.79 1429.69V1418.92C1144.79 1416.93 1143.17 1415.32 1141.19 1415.32C1139.21 1415.32 1137.6 1416.93 1137.6 1418.92V1429.69C1137.61 1443.59 1126.36 1454.86 1112.46 1454.87C1100.74 1454.88 1090.56 1446.79 1087.93 1435.35C1087.27 1432.47 1087.12 1429.49 1087.49 1426.54C1087.78 1424.58 1086.42 1422.76 1084.46 1422.46C1082.5 1422.17 1080.67 1423.52 1080.38 1425.49L1080.36 1425.66C1080.19 1426.99 1080.1 1428.34 1080.1 1429.69C1080.1 1430.08 1080.15 1430.47 1080.17 1430.85C1071.34 1426.74 1065.71 1417.87 1065.73 1408.14L1065.75 1407.44V1407.22C1065.89 1403.12 1067.04 1399.11 1069.09 1395.56C1070.03 1393.81 1069.38 1391.63 1067.63 1390.69C1065.96 1389.79 1063.87 1390.35 1062.87 1391.97C1061.1 1395.07 1059.86 1398.44 1059.19 1401.95C1052.19 1398.21 1047.8 1390.92 1047.76 1382.98C1047.74 1376.39 1050.76 1370.17 1055.94 1366.12ZM1058.58 1409.65C1059.15 1423.34 1068.35 1435.17 1081.48 1439.11C1086.66 1456.2 1104.73 1465.85 1121.82 1460.67C1130.2 1458.12 1137.19 1452.29 1141.19 1444.5C1149.36 1460.39 1168.86 1466.64 1184.74 1458.47C1191.63 1454.92 1197.02 1449.02 1199.93 1441.84C1200.29 1440.97 1200.56 1440.1 1200.84 1439.22L1200.88 1439.11C1214.02 1435.17 1223.22 1423.34 1223.8 1409.64C1234.66 1405.23 1241.77 1394.69 1241.81 1382.98C1241.84 1375.42 1238.85 1368.15 1233.5 1362.79C1240.76 1351.75 1239.53 1337.18 1230.52 1327.51C1230.86 1325.66 1231.02 1323.78 1231.02 1321.89C1231.04 1307.51 1221.54 1294.84 1207.73 1290.84C1212.4 1279.89 1207.32 1267.22 1196.37 1262.54C1193.69 1261.39 1190.81 1260.81 1187.9 1260.81C1187.11 1260.8 1186.32 1260.85 1185.53 1260.94C1179.64 1248.36 1164.67 1242.93 1152.09 1248.82C1147.56 1250.94 1143.76 1254.37 1141.19 1258.65C1134.03 1246.74 1118.58 1242.89 1106.67 1250.06C1102.39 1252.63 1098.97 1256.42 1096.85 1260.95C1096.06 1260.86 1095.27 1260.81 1094.48 1260.81C1082.57 1260.81 1072.92 1270.46 1072.92 1282.37C1072.92 1285.28 1073.51 1288.16 1074.65 1290.84C1060.84 1294.84 1051.34 1307.51 1051.36 1321.89C1051.36 1323.78 1051.52 1325.66 1051.85 1327.52C1042.86 1337.19 1041.63 1351.75 1048.88 1362.79C1043.54 1368.15 1040.55 1375.42 1040.58 1382.98C1040.61 1394.7 1047.72 1405.23 1058.58 1409.65Z" fill="white"/>
<path d="M1051.42 1508.55C1056.49 1508.55 1059.82 1504.79 1059.82 1499.28C1059.82 1493.76 1056.49 1489.91 1051.42 1489.91H1041.98V1508.55H1051.42ZM1031.48 1480.82H1051.86C1063.23 1480.82 1070.49 1489.39 1070.49 1499.28C1070.49 1506.63 1066.29 1513.01 1059.39 1515.64L1070.84 1539.96H1059.04L1048.89 1517.04H1041.98V1539.96H1031.48V1480.82Z" fill="white"/>
<path d="M1103.43 1512.66V1510.56C1103.43 1505.84 1100.37 1502.25 1095.65 1502.25C1091.1 1502.25 1087.86 1505.58 1087.86 1511.18V1512.66H1103.43ZM1077.71 1512.22C1077.71 1499.98 1085.76 1493.41 1095.65 1493.41C1105.61 1493.41 1113.66 1500.41 1113.66 1510.56V1520.19H1087.86V1521.85C1087.86 1528.94 1091.27 1532.26 1097.13 1532.26C1101.42 1532.26 1105.44 1531.39 1109.46 1530.16L1111.48 1538.56C1106.76 1540.31 1102.73 1541.09 1097.13 1541.09C1085.59 1541.09 1077.71 1534.45 1077.71 1521.85V1512.22Z" fill="white"/>
<path d="M1153.7 1476.53L1163.94 1474.78V1539.96H1153.7V1476.53ZM1125.54 1501.64H1119.5V1494.55H1125.54V1488.78C1125.54 1479.51 1133.06 1474.78 1140.49 1474.78C1143.29 1474.78 1146.01 1475.31 1148.64 1476.09L1146.62 1484.49C1144.87 1483.97 1142.86 1483.62 1141.11 1483.62C1137.79 1483.62 1135.69 1485.54 1135.69 1488.78V1494.55H1146.27L1144.34 1501.64H1135.69V1539.96H1125.54V1501.64Z" fill="white"/>
<path d="M1199.53 1512.66V1510.56C1199.53 1505.84 1196.47 1502.25 1191.74 1502.25C1187.19 1502.25 1183.96 1505.58 1183.96 1511.18V1512.66H1199.53ZM1173.81 1512.22C1173.81 1499.98 1181.86 1493.41 1191.74 1493.41C1201.72 1493.41 1209.76 1500.41 1209.76 1510.56V1520.19H1183.96V1521.85C1183.96 1528.94 1187.37 1532.26 1193.23 1532.26C1197.52 1532.26 1201.54 1531.39 1205.57 1530.16L1207.58 1538.56C1202.85 1540.31 1198.83 1541.09 1193.23 1541.09C1181.68 1541.09 1173.81 1534.45 1173.81 1521.85V1512.22Z" fill="white"/>
<path d="M1217.85 1513.27C1217.85 1499.36 1225.99 1493.41 1237.36 1493.41C1241.73 1493.41 1246.02 1494.2 1250.39 1495.51L1248.29 1504C1244.88 1503.04 1241.38 1502.25 1237.79 1502.25C1231.59 1502.25 1228.09 1505.31 1228.09 1513.45V1520.97C1228.09 1529.2 1231.59 1532.26 1237.79 1532.26C1241.38 1532.26 1244.79 1531.47 1248.29 1530.51L1250.48 1538.99C1245.67 1540.39 1241.73 1541.09 1237.36 1541.09C1225.99 1541.09 1217.85 1535.14 1217.85 1521.24V1513.27Z" fill="white"/>
<path d="M1264.1 1501.64H1258.51L1256.59 1494.55H1264.1V1481.96L1274.43 1480.29V1494.55H1282.48V1501.64H1274.43V1539.96H1264.1V1501.64Z" fill="white"/>
<path d="M450.56 1392.76C450.073 1399.12 450.848 1399.97 456.856 1399.97H467.339C472.339 1399.97 473.902 1397.85 472.593 1392.76H450.56ZM484.839 1357.99H468.106C463.152 1357.98 458.198 1358.03 453.244 1357.94C450.835 1357.9 449.144 1356.11 449.144 1353.9C449.139 1351.82 450.756 1350.09 452.998 1349.83C453.756 1349.74 454.531 1349.79 455.302 1349.79C465.464 1349.79 475.627 1349.78 485.794 1349.79C487.019 1349.79 488.002 1349.83 488.623 1348.33C492.914 1337.99 499.244 1328.88 505.969 1320.04C509.739 1315.08 514.11 1310.55 517.602 1305.42C527.36 1291.05 531.031 1275.11 528.51 1257.92C521.944 1213.17 474.698 1187.24 433.644 1206.2C410.035 1217.11 396.802 1236.2 394.377 1262.04C392.702 1279.89 397.598 1296.13 409.444 1310.04C417.864 1319.93 425.593 1330.36 431.681 1341.89C435.556 1349.23 439.114 1356.74 439.51 1365.23C439.735 1370.01 439.544 1374.79 439.627 1379.58C439.677 1382.62 441.181 1384.35 444.131 1384.37C455.831 1384.46 467.535 1384.45 479.235 1384.37C482.023 1384.35 483.606 1382.59 483.764 1379.81C483.848 1378.39 483.777 1376.96 483.777 1375.28H455.377C454.777 1375.28 454.177 1375.3 453.581 1375.26C450.864 1375.09 449.031 1373.3 449.144 1370.96C449.256 1368.66 450.985 1367.11 453.685 1367.09C462.735 1367.06 471.789 1367.08 480.844 1367.08H483.523C483.985 1363.89 484.394 1361.06 484.839 1357.99ZM451.552 1408.17C447.594 1406.67 444.127 1404.49 442.91 1400.19C442.227 1397.77 442.223 1395.17 441.944 1392.87C439.831 1391.71 437.589 1390.8 435.752 1389.38C433.002 1387.25 431.552 1384.24 431.456 1380.72C431.364 1377.39 431.218 1374.05 431.431 1370.73C431.889 1363.51 429.86 1356.92 426.839 1350.5C420.677 1337.41 412.148 1325.9 402.823 1314.98C393.656 1304.24 388.527 1291.79 386.594 1278.02C382.077 1245.83 398.664 1214.49 427.664 1199.93C472.819 1177.26 527.41 1204.54 536.185 1254.19C539.635 1273.69 536.056 1291.87 525.381 1308.56C523.373 1311.7 520.802 1314.49 518.452 1317.42C509.456 1328.62 500.819 1340.04 495.273 1353.45C493.069 1358.79 491.594 1364.25 491.964 1370.11C492.119 1372.58 491.989 1375.06 491.989 1377.54C491.989 1386.14 489.46 1389.74 481.16 1392.66C481.914 1400.17 479.206 1405.74 471.535 1408.17H451.552Z" fill="white"/>
<path d="M465.898 1163.81C465.898 1168.08 465.919 1172.35 465.894 1176.62C465.873 1179.61 464.265 1181.51 461.835 1181.54C459.394 1181.56 457.719 1179.65 457.71 1176.69C457.685 1167.98 457.681 1159.27 457.71 1150.56C457.723 1147.59 459.398 1145.74 461.889 1145.8C464.294 1145.86 465.86 1147.63 465.885 1150.49C465.931 1154.93 465.898 1159.37 465.898 1163.81Z" fill="white"/>
<path d="M385.864 1172.76C387.331 1173.71 388.66 1174.22 389.473 1175.16C395.139 1181.77 400.731 1188.44 406.285 1195.14C408.002 1197.22 407.827 1199.54 406.064 1201.09C404.223 1202.71 401.806 1202.49 399.985 1200.34C394.36 1193.7 388.794 1187 383.202 1180.33C381.998 1178.89 381.456 1177.22 382.531 1175.63C383.264 1174.54 384.569 1173.84 385.864 1172.76Z" fill="white"/>
<path d="M520.164 1202.79C518.785 1201.64 517.119 1200.91 516.714 1199.74C516.269 1198.46 516.523 1196.46 517.285 1195.32C519.085 1192.65 521.369 1190.3 523.452 1187.82C526.798 1183.82 530.127 1179.82 533.485 1175.84C535.71 1173.21 538.081 1172.67 540.06 1174.28C542.119 1175.95 542.081 1178.32 539.848 1181C534.548 1187.36 529.244 1193.71 523.856 1200C522.977 1201.03 521.656 1201.68 520.164 1202.79Z" fill="white"/>
<path d="M346.414 1243.57C350.956 1244.59 355.948 1245.7 360.939 1246.83C364.598 1247.66 368.252 1248.49 371.906 1249.36C374.86 1250.05 376.24 1251.89 375.748 1254.41C375.281 1256.81 373.098 1258.05 370.152 1257.39C361.831 1255.53 353.523 1253.62 345.219 1251.68C342.573 1251.07 341.16 1249.14 341.535 1246.95C341.902 1244.79 343.631 1243.46 346.414 1243.57Z" fill="white"/>
<path d="M552.381 1257.56C549.819 1257.6 548.156 1256.27 547.844 1254.24C547.473 1251.87 548.71 1250.07 551.365 1249.44C556.748 1248.16 562.156 1246.97 567.556 1245.74C570.294 1245.12 573.031 1244.47 575.773 1243.86C578.994 1243.13 581.148 1244.09 581.773 1246.52C582.448 1249.16 580.981 1251.09 577.706 1251.84C569.819 1253.65 561.931 1255.45 554.04 1257.24C553.377 1257.4 552.706 1257.5 552.381 1257.56Z" fill="white"/>
<path d="M567.873 1325.94C567.877 1330.22 564.535 1332 561.389 1330.26C557.069 1327.87 552.823 1325.34 548.548 1322.88C545.594 1321.17 542.635 1319.49 539.698 1317.77C536.944 1316.16 536.102 1313.88 537.394 1311.66C538.644 1309.53 540.994 1309.08 543.644 1310.6C550.81 1314.7 557.994 1318.78 565.077 1323.02C566.394 1323.81 567.285 1325.31 567.873 1325.94Z" fill="white"/>
<path d="M359.289 1331.39C358.281 1330.49 356.652 1329.68 356.189 1328.43C355.752 1327.27 356.427 1325.6 356.864 1324.24C357.031 1323.72 357.869 1323.37 358.452 1323.03C365.589 1318.89 372.731 1314.75 379.885 1310.63C382.552 1309.1 384.864 1309.49 386.144 1311.61C387.456 1313.79 386.644 1316.16 383.927 1317.74C376.794 1321.9 369.644 1326.02 362.481 1330.12C361.69 1330.58 360.773 1330.81 359.289 1331.39Z" fill="white"/>
<path d="M461.239 1320.07C461.994 1319.41 462.452 1319.04 462.877 1318.63C473.456 1308.44 484.039 1298.26 494.602 1288.06C500.656 1282.21 502.085 1272.81 498.144 1265.15C494.194 1257.48 485.427 1253.19 477.156 1254.66C472.519 1255.49 468.839 1258.09 465.131 1260.66C462.935 1262.19 460.948 1262.23 458.806 1260.61C457.106 1259.34 455.331 1258.13 453.514 1257.02C444.856 1251.75 433.823 1253.8 427.535 1261.8C421.373 1269.64 422.098 1280.77 429.256 1287.92C434.51 1293.16 439.814 1298.37 445.052 1303.64C450.464 1309.08 455.827 1314.57 461.239 1320.07ZM462.052 1252.84C466.423 1249.74 471.052 1247.36 476.419 1246.5C487.985 1244.63 500.048 1250.84 505.523 1261.66C510.919 1272.32 508.839 1285.71 500.456 1293.81C488.735 1305.14 476.977 1316.43 465.223 1327.72C462.235 1330.59 460.502 1330.58 457.606 1327.7C446.048 1316.21 434.356 1304.84 422.994 1293.16C415.089 1285.03 413.089 1275.11 416.885 1264.51C420.644 1254.01 428.431 1247.86 439.531 1246.2C446.781 1245.12 453.394 1246.96 459.419 1251.06C460.264 1251.64 461.11 1252.2 462.052 1252.84Z" fill="white"/>
<path d="M393.564 1448.58C393.564 1439.21 389.014 1434.75 382.456 1434.75C378.694 1434.75 374.669 1435.63 371.348 1436.76V1476.83H382.456C390.064 1476.83 393.564 1473.34 393.564 1463.71V1448.58ZM360.848 1485.93V1430.55C367.668 1428.02 375.369 1425.66 382.456 1425.66C394.177 1425.66 404.152 1433.44 404.152 1447.7V1464.41C404.152 1478.67 396.014 1485.93 382.456 1485.93H360.848Z" fill="white"/>
<path d="M438.873 1458.64V1456.54C438.873 1451.81 435.806 1448.23 431.089 1448.23C426.539 1448.23 423.298 1451.55 423.298 1457.15V1458.64H438.873ZM413.152 1458.2C413.152 1445.95 421.202 1439.39 431.089 1439.39C441.056 1439.39 449.106 1446.39 449.106 1456.54V1466.16H423.298V1467.82C423.298 1474.91 426.71 1478.23 432.573 1478.23C436.856 1478.23 440.885 1477.36 444.906 1476.13L446.919 1484.53C442.198 1486.28 438.173 1487.07 432.573 1487.07C421.027 1487.07 413.152 1480.42 413.152 1467.82V1458.2Z" fill="white"/>
<path d="M457.189 1459.25C457.189 1445.34 465.323 1439.39 476.702 1439.39C481.073 1439.39 485.36 1440.18 489.735 1441.49L487.635 1449.98C484.223 1449.02 480.723 1448.23 477.135 1448.23C470.923 1448.23 467.423 1451.29 467.423 1459.42V1466.95C467.423 1475.17 470.923 1478.23 477.135 1478.23C480.723 1478.23 484.135 1477.44 487.635 1476.48L489.819 1484.97C485.01 1486.37 481.073 1487.07 476.702 1487.07C465.323 1487.07 457.189 1481.12 457.189 1467.21V1459.25Z" fill="white"/>
<path d="M498.598 1440.53H508.831V1485.93H498.598V1440.53ZM497.548 1427.76C497.548 1424.34 500.431 1421.89 503.673 1421.89C506.91 1421.89 509.794 1424.34 509.794 1427.76C509.794 1430.99 506.994 1433.7 503.673 1433.7C500.348 1433.7 497.548 1430.99 497.548 1427.76Z" fill="white"/>
<path d="M536.606 1478.23C541.244 1478.23 544.744 1474.82 544.744 1467.65V1450.59C542.119 1449.19 539.406 1448.23 536.694 1448.23C532.056 1448.23 528.298 1451.03 528.298 1458.9V1467.65C528.298 1474.82 531.973 1478.23 536.606 1478.23ZM518.148 1458.46C518.148 1445.51 526.635 1439.39 535.819 1439.39C539.235 1439.39 542.644 1440.7 544.744 1442.02V1421.89H555.069V1468.09C555.069 1480.16 546.494 1487.07 536.606 1487.07C526.635 1487.07 518.148 1480.16 518.148 1468.09V1458.46Z" fill="white"/>
<path d="M589.431 1458.64V1456.54C589.431 1451.81 586.369 1448.23 581.64 1448.23C577.094 1448.23 573.856 1451.55 573.856 1457.15V1458.64H589.431ZM563.71 1458.2C563.71 1445.95 571.756 1439.39 581.64 1439.39C591.619 1439.39 599.669 1446.39 599.669 1456.54V1466.16H573.856V1467.82C573.856 1474.91 577.273 1478.23 583.131 1478.23C587.419 1478.23 591.44 1477.36 595.469 1476.13L597.477 1484.53C592.752 1486.28 588.731 1487.07 583.131 1487.07C571.581 1487.07 563.71 1480.42 563.71 1467.82V1458.2Z" fill="white"/>
<path d="M335.627 419.899C335.627 416.112 335.648 412.074 335.623 408.037C335.598 403.345 332.706 400.174 328.481 400.162C324.273 400.149 321.306 403.283 321.231 407.97C321.16 412.241 321.21 416.512 321.223 420.787C321.223 421.245 321.344 421.708 321.377 421.937C326.148 421.254 330.756 420.595 335.627 419.899ZM282.644 419.887C287.577 420.604 292.189 421.274 296.819 421.949C296.819 416.762 297.048 411.429 296.739 406.133C296.527 402.524 293.223 400.095 289.598 400.162C286.052 400.229 282.877 402.904 282.698 406.479C282.473 411.008 282.644 415.558 282.644 419.887ZM357.531 428.07V425.716C357.531 411.333 357.531 396.949 357.527 382.566C357.527 381.783 357.535 380.995 357.477 380.216C357.198 376.424 354.202 373.629 350.423 373.616C346.252 373.595 343.26 376.674 343.244 381.204C343.198 393.02 343.227 404.841 343.227 416.662C343.227 421.203 343.227 421.199 347.348 422.795C347.944 423.024 348.552 423.237 349.114 423.537C351.848 424.991 354.573 426.474 357.531 428.07ZM260.785 427.712C264.794 425.849 268.689 423.841 272.748 422.241C274.389 421.591 275.06 421.037 275.039 419.191C274.939 409.437 274.998 399.683 274.994 389.929C274.989 386.724 275.065 383.516 274.927 380.316C274.765 376.491 271.748 373.674 267.981 373.62C263.631 373.554 260.706 376.674 260.702 381.529C260.677 396.408 260.689 411.291 260.694 426.174C260.694 426.779 260.764 427.387 260.785 427.712ZM371.931 465.849C373.839 466.333 373.631 465.149 373.631 464.183C373.635 456.133 373.644 448.078 373.631 440.028C373.623 433.962 375.144 428.374 378.548 423.291C379.169 422.362 379.489 421.062 379.502 419.933C379.577 411.099 379.548 402.262 379.531 393.429C379.531 392.437 379.481 391.429 379.306 390.454C378.727 387.216 376.039 384.891 372.777 384.72C368.31 384.483 365.148 387.666 365.14 392.512C365.119 406.12 365.156 419.729 365.106 433.337C365.098 435.245 365.452 436.866 366.548 438.512C367.877 440.504 368.923 442.729 369.831 444.958C372.564 451.649 373.056 458.612 371.931 465.849ZM246.198 465.874C246.198 465.441 246.231 465.153 246.189 464.874C244.731 454.858 246.794 445.645 252.431 437.22C252.798 436.67 253.06 435.92 253.06 435.266C253.094 420.728 253.139 406.195 253.039 391.662C253.01 387.058 248.86 383.941 244.385 384.824C240.96 385.504 238.714 388.458 238.694 392.57C238.648 401.904 238.652 411.237 238.719 420.57C238.727 421.487 239.26 422.424 239.635 423.312C241.023 426.562 242.714 429.708 243.76 433.062C244.485 435.383 244.523 437.979 244.552 440.454C244.644 448.362 244.581 456.27 244.589 464.179C244.589 465.145 244.377 466.333 246.198 465.874ZM309.102 527.828C314.806 522.12 320.348 516.678 325.744 511.095C326.744 510.062 327.506 508.537 327.806 507.116C331.744 488.387 342.714 475.624 360.481 468.808C363.048 467.824 364.381 466.687 364.539 464.054C364.648 462.279 365.019 460.499 364.944 458.737C364.36 445.47 358.148 435.653 345.948 430.474C334.035 425.42 322.794 427.499 312.919 436.008C309.802 438.691 308.381 438.774 305.41 436.083C295.369 426.983 280.569 425.287 269.094 431.924C257.094 438.866 251.156 452.133 253.989 465.599C254.269 466.929 254.744 467.741 256.21 468.262C274.939 474.883 286.419 487.895 290.431 507.412C290.61 508.291 290.748 509.37 291.319 509.953C297.139 515.903 303.052 521.77 309.102 527.828ZM241.114 584.945C239.064 583.845 238.377 582.132 238.427 579.828C238.544 574.703 238.519 569.57 238.419 564.441C238.398 563.391 238.01 562.187 237.398 561.341C229.66 550.674 221.931 540.003 214.027 529.458C210.06 524.166 208.189 518.383 208.206 511.787C208.269 481.291 208.231 450.795 208.239 420.295C208.239 414.624 211.514 410.878 216.527 410.949C220.844 411.012 225.002 411.929 228.881 413.908C229.498 414.224 230.127 414.524 231.181 415.045V412.508C231.181 405.737 231.098 398.97 231.206 392.199C231.348 383.195 238.073 376.679 246.764 377.17C248.848 377.287 250.894 378.058 253.123 378.566C253.464 377.554 253.819 376.274 254.323 375.058C256.819 369.045 263.069 365.349 269.377 366.112C276.102 366.924 281.402 371.829 282.277 378.433C282.685 381.52 282.527 384.683 282.581 387.816C282.623 389.879 282.589 391.941 282.589 393.541C285.852 393.299 289.081 392.608 292.206 392.929C298.769 393.604 304.114 399.504 304.364 406.091C304.589 412.07 304.46 418.058 304.49 424.045C304.498 425.612 307.473 428.891 309.002 429.02C310.206 429.124 313.723 425.774 313.723 424.479C313.739 418.849 313.656 413.216 313.752 407.591C313.902 399.287 319.269 393.466 327.485 392.654C328.806 392.524 330.189 392.695 331.502 392.945C332.81 393.191 334.06 393.712 335.631 394.204C335.631 390.508 335.694 386.92 335.614 383.333C335.514 379.02 336.069 374.916 338.981 371.504C342.881 366.937 347.844 365.062 353.706 366.458C359.623 367.87 363.31 371.729 364.735 377.683C364.814 378.02 364.939 378.345 365.069 378.758C366.473 378.316 367.781 377.791 369.135 377.487C377.964 375.508 386.577 381.887 386.919 390.916C387.189 398.033 387.014 405.166 387.039 412.291V414.87C387.781 414.591 388.31 414.466 388.769 414.212C392.598 412.116 396.731 411.187 401.048 410.962C405.902 410.708 409.573 413.954 409.952 418.795C410.006 419.504 409.985 420.22 409.985 420.933C409.985 451.287 409.956 481.641 410.01 511.995C410.023 518.433 408.185 524.108 404.319 529.283C396.431 539.837 388.685 550.495 380.96 561.17C380.273 562.12 379.84 563.47 379.81 564.649C379.685 569.707 379.677 574.77 379.789 579.824C379.844 582.128 379.148 583.837 377.106 584.945H374.969C372.881 583.887 372.185 582.17 372.223 579.874C372.319 574.245 372.298 568.616 372.231 562.987C372.206 561.037 372.744 559.433 373.91 557.858C382.123 546.749 390.244 535.566 398.46 524.462C401.106 520.891 402.406 517.028 402.398 512.558C402.335 482.058 402.364 451.562 402.364 421.066V418.645C398.898 418.333 395.889 419.129 393.089 420.537C385.048 424.57 381.202 431.258 381.156 440.17C381.11 448.437 381.148 456.699 381.139 464.966C381.139 466.533 381.189 468.108 381.06 469.666C380.889 471.824 379.669 473.037 377.556 473.295C376.781 473.391 375.994 473.374 375.21 473.42C353.135 474.641 335.773 492.037 334.702 514.108C334.481 518.728 334.614 523.366 334.506 527.995C334.444 530.645 332.889 532.312 330.723 532.287C328.539 532.258 327.069 530.553 327.023 527.92C326.981 525.683 327.014 523.445 327.014 520.745C326.123 521.57 325.602 522.02 325.114 522.508C321.535 526.078 317.994 529.695 314.36 533.212C313.306 534.233 312.881 535.266 312.885 536.745C312.944 550.924 312.881 565.103 312.956 579.283C312.969 581.67 312.435 583.595 310.394 584.945H307.827C305.785 583.595 305.252 581.67 305.264 579.287C305.335 565.032 305.319 550.783 305.256 536.533C305.252 535.583 304.885 534.387 304.252 533.728C300.402 529.716 296.431 525.828 292.489 521.912C292.181 521.603 291.773 521.395 291.348 521.103L291.248 521.512C291.231 523.508 291.227 525.499 291.206 527.495C291.177 530.487 289.802 532.258 287.498 532.287C285.198 532.312 283.773 530.545 283.694 527.57C283.681 527.141 283.698 526.716 283.689 526.287C283.598 521.303 283.873 516.278 283.348 511.337C281.127 490.541 263.719 474.374 242.798 473.403C237.844 473.17 237.077 472.358 237.077 467.324C237.073 458.274 237.069 449.224 237.077 440.174C237.081 432.953 234.435 426.974 228.61 422.608C224.939 419.862 220.785 418.404 215.852 418.624V421.274C215.852 451.629 215.889 481.987 215.819 512.341C215.806 516.97 217.14 520.941 219.881 524.633C228.073 535.674 236.139 546.803 244.31 557.858C245.477 559.433 246.014 561.037 245.989 562.987C245.919 568.612 245.902 574.245 245.994 579.87C246.035 582.17 245.339 583.887 243.252 584.945H241.114Z" fill="white"/>
<path d="M229.356 641.586L224.985 626.891C224.194 624.266 223.319 620.59 222.619 617.09C221.835 620.59 220.956 624.266 220.173 626.891L215.798 641.586H229.356ZM216.498 606.245H228.656L246.939 665.382H236.269L231.806 650.249H213.348L208.973 665.382H198.21L216.498 606.245Z" fill="white"/>
<path d="M252.235 638.703C252.235 624.791 260.369 618.841 271.744 618.841C276.115 618.841 280.406 619.628 284.777 620.941L282.677 629.428C279.265 628.466 275.764 627.678 272.181 627.678C265.969 627.678 262.469 630.741 262.469 638.878V646.399C262.469 654.624 265.969 657.686 272.181 657.686C275.764 657.686 279.181 656.899 282.677 655.936L284.864 664.42C280.056 665.82 276.115 666.52 271.744 666.52C260.369 666.52 252.235 660.574 252.235 646.661V638.703Z" fill="white"/>
<path d="M298.494 627.065H292.898L290.977 619.978H298.494V607.382L308.823 605.72V619.978H316.873V627.065H308.823V665.382H298.494V627.065Z" fill="white"/>
<path d="M324.298 619.978H334.531V665.382H324.298V619.978ZM323.248 607.207C323.248 603.795 326.131 601.345 329.373 601.345C332.61 601.345 335.494 603.795 335.494 607.207C335.494 610.445 332.694 613.157 329.373 613.157C326.048 613.157 323.248 610.445 323.248 607.207Z" fill="white"/>
<path d="M362.664 657.686C368.435 657.686 371.41 653.924 371.41 646.136V639.224C371.41 631.441 368.435 627.678 362.664 627.678C356.977 627.678 354.002 631.441 354.002 639.224V646.136C354.002 653.924 356.977 657.686 362.664 657.686ZM343.852 638.703C343.852 625.841 351.814 618.841 362.664 618.841C373.598 618.841 381.56 625.841 381.56 638.791V646.574C381.56 659.436 373.598 666.52 362.664 666.52C351.814 666.52 343.852 659.436 343.852 646.574V638.703Z" fill="white"/>
<path d="M390.681 637.566C390.681 625.316 398.819 618.841 408.789 618.841C418.677 618.841 426.727 625.316 426.727 637.566V665.382H416.489V638.003C416.489 631.178 413.427 627.678 408.789 627.678C404.064 627.678 400.831 631.178 400.831 638.003V665.382H390.681V637.566Z" fill="white"/>
</g>
</g>
<defs>
<clipPath id="clip0_781_1013">
<rect width="1692" height="1696" fill="white"/>
</clipPath>
</defs>
</svg>
