<svg width="44" height="40" viewBox="0 0 44 40" fill="none" xmlns="http://www.w3.org/2000/svg">
<path d="M18.4481 2.63222C19.8691 3.66601 21.2263 5.01426 22.0236 6.58025C22.8232 5.01246 23.9828 3.65636 25.4074 2.62301C26.832 1.58966 28.4811 0.908452 30.2197 0.635165C31.9583 0.361878 33.7369 0.504289 35.4098 1.05073C37.0827 1.59718 38.6024 2.53212 39.8445 3.77898C41.0865 5.02585 42.0155 6.54918 42.5555 8.22423C43.0954 9.89928 43.2309 11.6784 42.9509 13.4159C42.6709 15.1534 41.9832 16.7999 40.9444 18.2204L21.8228 39.5L2.86165 18.1698C1.83233 16.7455 1.15446 15.098 0.883379 13.3618C0.612301 11.6255 0.755707 9.84978 1.30189 8.17954C1.84807 6.5093 2.78153 4.99192 4.02606 3.75129C5.2706 2.51067 6.79091 1.58197 8.46286 1.04105C10.1348 0.500124 11.911 0.362302 13.6464 0.638837C15.3817 0.915373 17.0271 1.59842 18.4481 2.63222Z" fill="white" stroke="white" stroke-linejoin="round"/>
</svg>
