<svg width="44" height="40" viewBox="0 0 44 40" fill="none" xmlns="http://www.w3.org/2000/svg">
<path d="M18.8829 4.41353C20.1582 5.34129 21.3762 6.55126 22.0917 7.95664C22.8093 6.54964 23.8499 5.33263 25.1284 4.40527C26.4069 3.4779 27.8869 2.86656 29.4472 2.6213C31.0074 2.37604 32.6036 2.50385 34.1049 2.99425C35.6063 3.48465 36.9701 4.3237 38.0848 5.44268C39.1994 6.56166 40.0332 7.92875 40.5177 9.432C41.0023 10.9353 41.1239 12.5319 40.8726 14.0912C40.6213 15.6505 40.0042 17.1281 39.0719 18.403L21.9115 37.5L4.89507 18.3575C3.97132 17.0793 3.36297 15.6008 3.1197 14.0426C2.87642 12.4844 3.00512 10.8908 3.49528 9.3919C3.98544 7.89296 4.82317 6.53121 5.94006 5.41783C7.05695 4.30444 8.42133 3.471 9.92179 2.98556C11.4223 2.50011 13.0163 2.37642 14.5737 2.6246C16.1311 2.87277 17.6077 3.48577 18.8829 4.41353Z" stroke="white" stroke-width="5" stroke-miterlimit="2.61313" stroke-linejoin="round"/>
</svg>
