<svg width="42" height="40" viewBox="0 0 42 40" fill="none" xmlns="http://www.w3.org/2000/svg">
<path fill-rule="evenodd" clip-rule="evenodd" d="M7.1282 17.4359C6.02363 17.4359 5.1282 18.3313 5.1282 19.4359V38C5.1282 39.1046 6.02363 40 7.1282 40H15.3846V30.1242C15.3846 29.0196 16.28 28.1242 17.3846 28.1242H22.6154C23.72 28.1242 24.6154 29.0196 24.6154 30.1242V40H33.8974C35.002 40 35.8974 39.1046 35.8974 38V19.4359C35.8974 18.3313 35.002 17.4359 33.8974 17.4359H7.1282Z" fill="white"/>
<path d="M18.8587 0.611884C19.7503 -0.203961 21.2754 -0.203962 22.167 0.611883L40.4234 17.3177C41.7558 18.5368 40.7328 20.5128 38.7693 20.5128H2.25634C0.292841 20.5128 -0.730128 18.5368 0.602205 17.3177L18.8587 0.611884Z" fill="white"/>
</svg>
