<svg width="40" height="40" viewBox="0 0 40 40" fill="none" xmlns="http://www.w3.org/2000/svg">
<path fill-rule="evenodd" clip-rule="evenodd" d="M13 15C10.2386 15 8 17.2386 8 20V34C8 36.7614 10.2386 39 13 39H27C29.7614 39 32 36.7614 32 34V20C32 17.2386 29.7614 15 27 15H13ZM23 24C23 25.3285 22.1365 26.4553 20.9402 26.8497L22.5981 31.875H17.4019L19.0598 26.8497C17.8635 26.4553 17 25.3285 17 24C17 22.3431 18.3431 21 20 21C21.6569 21 23 22.3431 23 24Z" fill="white"/>
<path d="M26.5 9V30C26.5 33.5899 23.5899 36.5 20 36.5C16.4101 36.5 13.5 33.5899 13.5 30V9C13.5 5.41015 16.4101 2.5 20 2.5C23.5899 2.5 26.5 5.41015 26.5 9Z" stroke="white" stroke-width="3"/>
</svg>
