<svg width="48" height="40" viewBox="0 0 48 40" fill="none" xmlns="http://www.w3.org/2000/svg">
<path d="M23.6 30.678V28.678C23.2981 28.678 23.0001 28.7463 22.7283 28.8779L23.6 30.678ZM11.18 28.2373L13.1076 28.7704L13.5356 27.2229L12.1172 26.4705L11.18 28.2373ZM8.48 38L6.55236 37.4669C6.34299 38.2239 6.59614 39.0334 7.19951 39.5363C7.80288 40.0392 8.64476 40.1424 9.35169 39.8L8.48 38ZM43.2 17.2542C43.2 20.5704 41.3384 23.3519 37.8583 25.4022C34.3412 27.4743 29.3198 28.678 23.6 28.678V32.678C29.8096 32.678 35.5882 31.3822 39.8887 28.8485C44.2263 26.2931 47.2 22.3628 47.2 17.2542H43.2ZM4 17.2542C4 13.8656 5.9419 10.6004 9.48022 8.10154C13.0134 5.60639 17.9992 4 23.6 4V0C17.2715 0 11.4573 1.80839 7.17276 4.83418C2.89343 7.85631 0 12.2181 0 17.2542H4ZM23.6 4C29.2008 4 34.1866 5.60639 37.7198 8.10154C41.2581 10.6004 43.2 13.8656 43.2 17.2542H47.2C47.2 12.2181 44.3066 7.85631 40.0272 4.83418C35.7427 1.80839 29.9285 0 23.6 0V4ZM12.1172 26.4705C6.8717 23.6879 4 20.9807 4 17.2542H0C0 23.509 4.99548 27.2206 10.2428 30.0041L12.1172 26.4705ZM22.7283 28.8779L7.60831 36.2L9.35169 39.8L24.4717 32.478L22.7283 28.8779ZM10.4076 38.5331L13.1076 28.7704L9.25236 27.7042L6.55236 37.4669L10.4076 38.5331Z" fill="white"/>
</svg>
