<svg width="40" height="41" viewBox="0 0 40 41" fill="none" xmlns="http://www.w3.org/2000/svg">
<path d="M3.83012 11.5C5.6596 8.33126 7.95462 5.52618 11.2362 3.90787C14.5179 2.28955 18.2057 1.6807 21.8333 2.15828C25.461 2.63587 28.8655 4.17846 31.6165 6.59098C34.3674 9.00349 36.3412 12.1776 37.2882 15.7119C38.2352 19.2461 38.1129 22.9819 36.9368 26.4466C35.7607 29.9114 33.5835 32.9496 30.6807 35.177C27.7778 37.4045 24.2797 38.7211 20.6285 38.9604C16.9774 39.1997 13.3373 38.351 10.1686 36.5215M3.83012 11.5L11 10M3.83012 11.5L2 5" stroke="white" stroke-width="4" stroke-miterlimit="16" stroke-linecap="round"/>
<path d="M28.4823 21.4079C29.1726 21.0113 29.1726 19.9887 28.4823 19.5921L15.502 12.1333C14.8289 11.7465 14 12.2476 14 13.0413V27.9587C14 28.7524 14.8289 29.2535 15.502 28.8667L28.4823 21.4079Z" fill="white"/>
</svg>
