<svg width="40" height="40" viewBox="0 0 40 40" fill="none" xmlns="http://www.w3.org/2000/svg">
<path d="M15 18C15 16.3431 16.3431 15 18 15H37C38.6569 15 40 16.3431 40 18V37C40 38.6569 38.6569 40 37 40H18C16.3431 40 15 38.6569 15 37V18Z" fill="#EEEEEE"/>
<line x1="19.5" y1="24.5" x2="35.5" y2="24.5" stroke="white" stroke-width="3" stroke-linecap="round"/>
<path d="M23 25C23 25 28.751 34.4621 34 36" stroke="white" stroke-width="3" stroke-linecap="round"/>
<path d="M32 25C32 25 26.249 34.4621 21 36" stroke="white" stroke-width="3" stroke-linecap="round"/>
<path d="M26 18L28 21" stroke="white" stroke-width="3" stroke-linecap="round"/>
<rect width="25" height="25" rx="3" fill="#EEEEEE"/>
<path d="M5.28906 20.4194C4.72656 20.4194 4.54297 20.1616 4.73828 19.6459L10.4805 4.5639C10.7227 3.93109 11.0898 3.61469 11.582 3.61469H13.2227C13.7148 3.61469 14.082 3.93109 14.3242 4.5639L20.0664 19.6459C20.2617 20.1616 20.0781 20.4194 19.5156 20.4194H17.6523C17.1367 20.4194 16.7773 20.1498 16.5742 19.6108L15.3789 16.4584H9.42578L8.23047 19.6108C8.02734 20.1498 7.66797 20.4194 7.15234 20.4194H5.28906ZM10.5156 13.5522H14.2891L12.8477 9.82562C12.6758 9.38812 12.5703 9.07172 12.5312 8.8764C12.5 8.67328 12.4648 8.3764 12.4258 7.98578H12.3789C12.3398 8.3764 12.3008 8.67328 12.2617 8.8764C12.2305 9.07172 12.1289 9.38812 11.957 9.82562L10.5156 13.5522Z" fill="white"/>
</svg>
