<svg width="38" height="40" viewBox="0 0 38 40" fill="none" xmlns="http://www.w3.org/2000/svg">
<circle cx="18.9138" cy="10.7348" r="10.7348" fill="white"/>
<path fill-rule="evenodd" clip-rule="evenodd" d="M11.2873 22.26C10.6449 21.8091 9.8084 21.6751 9.1194 22.0511C7.42103 22.9778 5.84807 24.1488 4.45533 25.5416C1.09495 28.902 0.202685 33.3115 0.0333843 38.0004C-0.00647277 39.1042 0.895428 40 2 40H35.8276C36.9321 40 37.834 39.1042 37.7942 38.0004C37.6249 33.3115 36.7326 28.902 33.3722 25.5416C31.9795 24.1488 30.4065 22.9778 28.7082 22.0511C28.0192 21.6751 27.1827 21.8091 26.5402 22.26C24.3815 23.7751 21.7515 24.6645 18.9138 24.6645C16.0761 24.6645 13.4461 23.7751 11.2873 22.26Z" fill="white"/>
</svg>
